<?xml version="1.0" encoding="UTF-8"?>
<svg version="1.1" xmlns="http://www.w3.org/2000/svg" width="500" height="500">
<path d="M0 0 C165 0 330 0 500 0 C500 165 500 330 500 500 C335 500 170 500 0 500 C0 335 0 170 0 0 Z " fill="#FCF9EF" transform="translate(0,0)"/>
<path d="M0 0 C165 0 330 0 500 0 C500 165 500 330 500 500 C335 500 170 500 0 500 C0 335 0 170 0 0 Z M192 58 C191.14760742 58.2690918 190.29521484 58.53818359 189.41699219 58.81542969 C170.1138711 65.05247319 151.35889763 73.9096777 135 86 C133.95070313 86.76699219 132.90140625 87.53398438 131.8203125 88.32421875 C124.64519856 93.65763186 117.94046505 99.41227385 111.47949219 105.58789062 C110.4983516 106.5243456 109.51204753 107.45542231 108.52050781 108.38085938 C95.91379979 120.16484881 85.4277385 133.94780569 77 149 C76.55301758 149.77988281 76.10603516 150.55976563 75.64550781 151.36328125 C64.01026302 171.82658587 56.0581703 193.79143407 52 217 C51.66548828 218.78083984 51.66548828 218.78083984 51.32421875 220.59765625 C43.49061446 270.42364274 57.01946781 325.21040728 86.47680664 366.00683594 C99.38305338 383.45603226 114.36350711 399.27925314 132 412 C132.54849609 412.40347656 133.09699219 412.80695313 133.66210938 413.22265625 C152.19268459 426.73498659 173.09778902 436.43018993 195 443 C195.71381836 443.21978516 196.42763672 443.43957031 197.16308594 443.66601562 C223.82597168 451.71865303 254.65857114 452.83646952 282 448 C282.66161133 447.8870459 283.32322266 447.7740918 284.00488281 447.65771484 C323.62734254 440.66055706 359.57520729 422.06164046 388.53662109 394.39599609 C389.5110153 393.46646889 390.4905249 392.54227418 391.47509766 391.62353516 C404.09490426 379.82703059 414.52945777 366.04747023 423 351 C423.58128662 349.97664551 423.58128662 349.97664551 424.17431641 348.93261719 C450.59234398 302.0336607 457.11824367 246.97433243 442.87841797 195.06347656 C435.91250285 170.76989599 424.60307077 147.91458688 409 128 C408.56010742 127.43458496 408.12021484 126.86916992 407.66699219 126.28662109 C396.27006419 111.81997207 382.95098287 98.75022811 368 88 C367.43023437 87.58588867 366.86046875 87.17177734 366.2734375 86.74511719 C349.31405886 74.54843401 330.67205386 65.84683787 311 59 C309.88443726 58.59890015 309.88443726 58.59890015 308.74633789 58.18969727 C303.21830126 56.25449049 297.69518652 54.98639958 291.9375 53.9375 C291.01122803 53.76831055 290.08495605 53.59912109 289.13061523 53.42480469 C286.42218502 52.93904217 283.71150554 52.46823732 281 52 C279.72382813 51.76925781 278.44765625 51.53851563 277.1328125 51.30078125 C249.12273896 46.9797524 218.98392525 49.42658491 192 58 Z " fill="#FEFAEF" transform="translate(0,0)"/>
<path d="M0 0 C0.81645996 0.64291992 0.81645996 0.64291992 1.64941406 1.29882812 C21.12064545 16.7859642 37.8182251 35.24298382 50 57 C50.44698242 57.77988281 50.89396484 58.55976563 51.35449219 59.36328125 C76.77402532 104.06948718 84.39897088 158.00778086 71.15234375 207.96875 C58.6008143 252.69385058 32.99256342 292.68214894 -5 320 C-5.85464844 320.62116699 -5.85464844 320.62116699 -6.7265625 321.25488281 C-24.93050088 334.34661653 -44.75603181 343.06703079 -66 350 C-66.7233252 350.23831543 -67.44665039 350.47663086 -68.19189453 350.72216797 C-105.18275646 362.71126362 -147.29757809 360.69515077 -184 349 C-185.20317871 348.62149902 -185.20317871 348.62149902 -186.43066406 348.23535156 C-204.69905646 342.35769488 -222.55416844 333.41550525 -238 322 C-239.04929687 321.23300781 -240.09859375 320.46601563 -241.1796875 319.67578125 C-248.35480144 314.34236814 -255.05953495 308.58772615 -261.52050781 302.41210938 C-262.5016484 301.4756544 -263.48795247 300.54457769 -264.47949219 299.61914062 C-277.09520495 287.8267341 -287.53918535 274.04707754 -296 259 C-296.38752441 258.31244629 -296.77504883 257.62489258 -297.17431641 256.91650391 C-310.62742199 232.82898868 -318.69642229 208.37168453 -322 181 C-322.14356934 179.8560376 -322.14356934 179.8560376 -322.29003906 178.68896484 C-325.45723651 150.9277413 -322.3391392 123.55133954 -314 97 C-313.7529834 96.20561523 -313.5059668 95.41123047 -313.25146484 94.59277344 C-306.50685706 73.44631337 -295.67273734 53.45085437 -282 36 C-281.56010742 35.43458496 -281.12021484 34.86916992 -280.66699219 34.28662109 C-269.26371032 19.81190681 -255.9408401 6.77644212 -241 -4 C-240.45150391 -4.40347656 -239.90300781 -4.80695313 -239.33789062 -5.22265625 C-168.85660491 -56.61698183 -68.19167844 -54.04450716 0 0 Z M-231 6 C-232.03253906 6.73734375 -233.06507813 7.4746875 -234.12890625 8.234375 C-274.45501118 37.88156286 -298.87485491 82.04771844 -307.7121582 130.64501953 C-308.05442204 133.44525448 -308.0454224 136.18178121 -308 139 C-307.3596431 139.00142502 -306.71928619 139.00285004 -306.05952454 139.00431824 C-299.39186827 139.02401147 -292.72512794 139.07827753 -286.05786133 139.15258789 C-283.56997245 139.17577856 -281.08198526 139.19016607 -278.59399414 139.19555664 C-275.01646573 139.2048378 -271.44048621 139.24581411 -267.86328125 139.29296875 C-266.75165115 139.2890361 -265.64002106 139.28510345 -264.4947052 139.28105164 C-256.76182206 139.42700874 -256.76182206 139.42700874 -252.93774414 142.30322266 C-252.29828857 143.19315918 -251.65883301 144.0830957 -251 145 C-250.4858252 145.6499292 -249.97165039 146.2998584 -249.44189453 146.96948242 C-249.00989746 147.59185791 -248.57790039 148.2142334 -248.1328125 148.85546875 C-247.64264648 149.55559082 -247.15248047 150.25571289 -246.64746094 150.97705078 C-246.14504883 151.70649902 -245.64263672 152.43594727 -245.125 153.1875 C-244.07066845 154.709882 -243.01598246 156.23201858 -241.9609375 157.75390625 C-241.45530273 158.48496582 -240.94966797 159.21602539 -240.42871094 159.96923828 C-239.2097122 161.70191626 -237.94166053 163.39991056 -236.6640625 165.08984375 C-236.03242188 165.92644531 -235.40078125 166.76304687 -234.75 167.625 C-234.20859375 168.31851563 -233.6671875 169.01203125 -233.109375 169.7265625 C-231.44206342 173.14337707 -231.45553865 175.22402343 -232 179 C-233.6621555 182.12449312 -235.76168633 184.84170109 -237.9375 187.625 C-239.05254789 189.09501579 -240.16578443 190.56640704 -241.27734375 192.0390625 C-241.88956787 192.80420166 -242.50179199 193.56934082 -243.13256836 194.35766602 C-245.13683773 197.02755769 -245.13683773 197.02755769 -246.60375977 200.43725586 C-248.48451023 204.28993254 -250.34964165 207.60121245 -254 210 C-261.71682921 212.28984391 -270.11127941 211.54229727 -278.0625 211.3125 C-280.2857698 211.29549386 -282.50909282 211.28436737 -284.73242188 211.27929688 C-290.15741677 211.2541753 -295.57726675 211.15576911 -301 211 C-300.52448484 212.76837671 -300.04717056 214.53626971 -299.5690918 216.30395508 C-299.30347946 217.28850174 -299.03786713 218.2730484 -298.76420593 219.28742981 C-291.91861927 243.58602987 -276.14801513 266.95351102 -259 285 C-258.48759766 285.55026855 -257.97519531 286.10053711 -257.44726562 286.66748047 C-233.54793143 312.21145525 -201.90273343 331.04593527 -167.8125 339.125 C-166.80380859 339.37636719 -165.79511719 339.62773437 -164.75585938 339.88671875 C-150.66447899 343.26581938 -136.63681448 344.4455492 -122.1875 344.4375 C-121.43431488 344.43790283 -120.68112976 344.43830566 -119.90512085 344.4387207 C-68.99414576 344.28351043 -23.08969937 321.69970532 12.41015625 286.08227539 C20.1831521 278.03854043 26.78584171 269.28410103 33 260 C33.65452148 259.02450195 33.65452148 259.02450195 34.32226562 258.02929688 C42.42288654 245.74270917 55 226.08604052 55 211 C54.43782776 211.02522232 53.87565552 211.05044464 53.29644775 211.07643127 C47.39011989 211.32422241 41.48979056 211.44930786 35.57861328 211.5065918 C33.38028939 211.54351538 31.18224108 211.61065697 28.98583984 211.7097168 C11.26061126 212.47880327 11.26061126 212.47880327 5.86633301 208.37792969 C2.19292105 204.42087056 -0.35795679 199.97082162 -2.80096436 195.18518066 C-5.07869858 191.03412744 -8.10840086 187.43307692 -11.05230713 183.74229431 C-13.02179605 181.08670794 -14.00877421 178.95704716 -14.671875 175.7109375 C-13.68101795 170.23818052 -10.78578499 166.6492293 -7.5 162.25 C-6.86231689 161.36981201 -6.22463379 160.48962402 -5.56762695 159.58276367 C-3.72533063 157.04489934 -1.86350053 154.5223086 0 152 C0.89437597 150.76348635 1.78666189 149.52545506 2.67578125 148.28515625 C7.68808411 141.31191589 7.68808411 141.31191589 9 140 C10.65644366 139.87709282 12.31798993 139.82216092 13.97875977 139.79467773 C15.03978409 139.77473251 16.10080841 139.75478729 17.19398499 139.73423767 C18.348134 139.71752518 19.50228302 139.70081268 20.69140625 139.68359375 C21.86638168 139.66281265 23.04135712 139.64203156 24.25193787 139.62062073 C28.02206324 139.55499876 31.79226082 139.4961817 35.5625 139.4375 C38.11133573 139.3943268 40.66016403 139.35071292 43.20898438 139.30664062 C49.47257892 139.19930455 55.73624601 139.0975621 62 139 C61.85648134 136.94132531 61.70866939 134.88294966 61.55908203 132.82470703 C61.47723663 131.67841827 61.39539124 130.53212952 61.31106567 129.35110474 C60.88367754 124.74686031 59.98740482 120.35636447 58.875 115.875 C58.54786011 114.53840332 58.54786011 114.53840332 58.21411133 113.17480469 C50.20603661 81.69920202 34.34677913 53.4944989 12 30 C11.20964355 29.16082031 11.20964355 29.16082031 10.40332031 28.3046875 C-9.20549518 7.6058817 -32.32117702 -6.9654748 -59 -17 C-60.09876465 -17.42104004 -60.09876465 -17.42104004 -61.21972656 -17.85058594 C-116.57732318 -38.7667406 -183.44069711 -28.95241895 -231 6 Z " fill="#0372BC" transform="translate(373,92)"/>
<path d="M0 0 C2.448173 1.24185507 4.72927505 2.50603443 7.05859375 3.9375 C7.7248024 4.33646484 8.39101105 4.73542969 9.07740784 5.14648438 C11.20291371 6.42214438 13.32023206 7.7107234 15.4375 9 C16.82434316 9.83551019 18.21170926 10.670153 19.59960938 11.50390625 C22.37721678 13.17453252 25.1517617 14.85006632 27.92358398 16.53027344 C36.99940398 22.03161705 46.10354684 27.48289264 55.25390625 32.859375 C57.32736744 34.08000735 59.40065372 35.3009362 61.47387695 36.52197266 C62.88139627 37.34953808 64.28994838 38.17534912 65.69946289 38.99951172 C67.78310832 40.21861262 69.86256531 41.44460386 71.94140625 42.671875 C72.56334366 43.03343689 73.18528107 43.39499878 73.82606506 43.76751709 C84.43371068 50.05843662 84.43371068 50.05843662 85.875 55 C84.55098205 59.53949012 80.93768206 60.82375434 77 63 C72.71987619 65.23360103 68.39670866 67.37359826 64.0625 69.5 C57.17870789 72.88882285 50.33319909 76.26405271 43.70483398 80.13476562 C42 81 42 81 40 81 C40 108.72 40 136.44 40 165 C33.73 168.3 27.46 171.6 21 175 C16.58340237 177.71698792 16.58340237 177.71698792 12.2265625 180.52734375 C9.85905717 182.09322008 7.44242575 183.55439466 5 185 C6.64647767 180.77642685 9.76959899 177.92843084 12.9375 174.8125 C13.79952026 173.95845581 13.79952026 173.95845581 14.67895508 173.0871582 C29.07920528 159 29.07920528 159 33 159 C33 142.5 33 126 33 109 C21.88490869 110.67792637 21.88490869 110.67792637 10.77368164 112.38110352 C9.36097261 112.58960599 7.94813819 112.79726131 6.53515625 113.00390625 C5.82548706 113.1169812 5.11581787 113.23005615 4.38464355 113.34655762 C-0.92533814 114.10719373 -5.70713585 113.77222433 -11 113 C-12.03278076 112.87689453 -13.06556152 112.75378906 -14.12963867 112.62695312 C-17.14908905 112.25259521 -20.16839754 111.87715442 -23.1875 111.5 C-24.24130859 111.36980469 -25.29511719 111.23960937 -26.38085938 111.10546875 C-27.40373047 110.97785156 -28.42660156 110.85023438 -29.48046875 110.71875 C-30.39723389 110.60466797 -31.31399902 110.49058594 -32.25854492 110.37304688 C-35.18115455 109.97534917 -38.0905876 109.48490207 -41 109 C-41 125.5 -41 142 -41 159 C-39.68 159.66 -38.36 160.32 -37 161 C-34.74348374 162.79611873 -32.55092463 164.61132809 -30.375 166.5 C-29.76124512 167.02883789 -29.14749023 167.55767578 -28.51513672 168.10253906 C-23.08866722 172.82649349 -17.98388442 177.8094107 -13 183 C-13.33 183.66 -13.66 184.32 -14 185 C-14.53625 184.59910156 -15.0725 184.19820312 -15.625 183.78515625 C-20.93993763 179.93007814 -26.40430539 176.51969783 -32.125 173.3125 C-32.78113281 172.94455322 -33.43726563 172.57660645 -34.11328125 172.19750977 C-38.68818923 169.66293312 -43.3142331 167.34288345 -48 165 C-48 137.28 -48 109.56 -48 81 C-49.65 80.34 -51.3 79.68 -53 79 C-55.18292582 77.92183077 -57.35379159 76.81908048 -59.515625 75.69921875 C-60.43852325 75.22184013 -60.43852325 75.22184013 -61.38006592 74.7348175 C-62.67826594 74.06267842 -63.97588369 73.38941366 -65.27294922 72.71508789 C-67.22871947 71.69856072 -69.18645444 70.68590384 -71.14453125 69.67382812 C-77.81991403 66.21668319 -84.46201891 62.71256064 -91 59 C-90.85966889 60.97956441 -90.7125877 62.95865141 -90.5625 64.9375 C-90.48128906 66.03964844 -90.40007812 67.14179688 -90.31640625 68.27734375 C-90.29581916 70.91109903 -90.29581916 70.91109903 -89 72 C-88.91224395 74.14558827 -88.89304781 76.29404421 -88.90234375 78.44140625 C-88.90556641 79.74658203 -88.90878906 81.05175781 -88.91210938 82.39648438 C-88.92046599 83.7851569 -88.92893095 85.17382877 -88.9375 86.5625 C-88.94251334 87.95507656 -88.94707653 89.34765481 -88.95117188 90.74023438 C-88.96300566 94.1601987 -88.9794912 97.58007844 -89 101 C-91.875 101.625 -91.875 101.625 -95 102 C-97 100 -97 100 -97.22705078 97.20263672 C-97.21657715 96.04006348 -97.20610352 94.87749023 -97.1953125 93.6796875 C-97.18886719 92.42285156 -97.18242187 91.16601562 -97.17578125 89.87109375 C-97.15902344 88.55238281 -97.14226562 87.23367187 -97.125 85.875 C-97.11496983 84.53516279 -97.10584404 83.19531848 -97.09765625 81.85546875 C-97.07402075 78.57013427 -97.04107234 75.28515535 -97 72 C-96.01 71.505 -96.01 71.505 -95 71 C-94.99589111 70.41508789 -94.99178223 69.83017578 -94.98754883 69.22753906 C-94.95457339 66.56734434 -94.88393093 63.90942845 -94.8125 61.25 C-94.80669922 60.32960937 -94.80089844 59.40921875 -94.79492188 58.4609375 C-94.57402182 51.68666911 -94.57402182 51.68666911 -92.12890625 48.76171875 C-91.09636719 48.18035156 -90.06382812 47.59898437 -89 47 C-88.24468994 46.54028809 -87.48937988 46.08057617 -86.71118164 45.60693359 C-83.87202989 43.88354722 -81.00299174 42.22017017 -78.125 40.5625 C-76.53292725 39.63932983 -76.53292725 39.63932983 -74.90869141 38.69750977 C-66.81605971 34.01643074 -58.67788806 29.41795865 -50.52807617 24.83740234 C-43.78185793 21.03552534 -37.09771445 17.13788197 -30.4375 13.1875 C-29.52468262 12.64843018 -28.61186523 12.10936035 -27.67138672 11.55395508 C-23.66980856 9.18872222 -19.67983232 6.80996039 -15.72265625 4.37109375 C-14.4818408 3.62227988 -13.24096101 2.87357261 -12 2.125 C-10.96875 1.48820313 -9.9375 0.85140625 -8.875 0.1953125 C-5.27007905 -1.30347257 -3.7696939 -0.94870207 0 0 Z " fill="#0171BC" transform="translate(253,137)"/>
<path d="M0 0 C4.58832691 0.91766538 8.72067552 2.26775002 13.07421875 3.90625 C13.83926224 4.19101196 14.60430573 4.47577393 15.39253235 4.76916504 C17.00266113 5.3692521 18.61212142 5.97113551 20.22094727 6.57470703 C22.68819851 7.50026203 25.15737048 8.42052977 27.62695312 9.33984375 C29.19282228 9.92417392 30.75858138 10.50879909 32.32421875 11.09375 C33.06379318 11.36981079 33.80336761 11.64587158 34.56535339 11.93029785 C39.76472172 13.88236086 39.76472172 13.88236086 42 15 C42 18.96 42 22.92 42 27 C42.66 27 43.32 27 44 27 C44 55.05 44 83.1 44 112 C37.73 115.3 31.46 118.6 25 122 C20.58340237 124.71698792 20.58340237 124.71698792 16.2265625 127.52734375 C13.85905717 129.09322008 11.44242575 130.55439466 9 132 C10.64647767 127.77642685 13.76959899 124.92843084 16.9375 121.8125 C17.79952026 120.95845581 17.79952026 120.95845581 18.67895508 120.0871582 C33.07920528 106 33.07920528 106 37 106 C37 89.5 37 73 37 56 C25.70609882 57.64162911 25.70609882 57.64162911 14.41333008 59.29101562 C12.99043747 59.49637343 11.56750699 59.70146906 10.14453125 59.90625 C9.41439819 60.01420898 8.68426514 60.12216797 7.93200684 60.23339844 C4.25900842 60.75855906 0.71180492 61.12744395 -3 61 C-1.515 60.505 -1.515 60.505 0 60 C0 40.2 0 20.4 0 0 Z " fill="#46B0E4" transform="translate(249,190)"/>
<path d="M0 0 C1.09570312 0.00902344 2.19140625 0.01804688 3.3203125 0.02734375 C4.16335937 0.03894531 5.00640625 0.05054688 5.875 0.0625 C5.875 3.0325 5.875 6.0025 5.875 9.0625 C2.905 9.0625 -0.065 9.0625 -3.125 9.0625 C-3.125 31.8325 -3.125 54.6025 -3.125 78.0625 C3.475 78.0625 10.075 78.0625 16.875 78.0625 C29.82591169 79.23100331 41.58888892 81.8799941 53.875 86.0625 C53.875 86.3925 53.875 86.7225 53.875 87.0625 C45.99073134 87.15521653 38.10669078 87.22627259 30.22201157 87.26974869 C26.56073489 87.2906161 22.89983142 87.31891706 19.23876953 87.36425781 C15.70501289 87.40774763 12.17161501 87.43164348 8.63761139 87.44200897 C6.63448748 87.45298737 4.63150774 87.48420876 2.62860107 87.51568604 C1.40763733 87.51598816 0.18667358 87.51629028 -1.07128906 87.51660156 C-2.68345306 87.52992523 -2.68345306 87.52992523 -4.32818604 87.54351807 C-7.82688282 86.94178467 -8.9675039 85.82847053 -11.125 83.0625 C-12.29889358 79.54081925 -12.27369427 76.72600513 -12.30200195 73.00830078 C-12.30857315 72.29412994 -12.31514435 71.57995911 -12.32191467 70.84414673 C-12.34161689 68.48203422 -12.35330225 66.11998514 -12.36328125 63.7578125 C-12.36735678 62.95039486 -12.3714323 62.14297722 -12.37563133 61.31109238 C-12.39647717 57.0389405 -12.4107863 52.76682062 -12.42016602 48.49462891 C-12.43123821 44.08383413 -12.46565127 39.67354277 -12.50533772 35.2629261 C-12.53148512 31.86912093 -12.53985607 28.4754362 -12.54344749 25.08153915 C-12.54831694 23.45564238 -12.55994119 21.8297511 -12.57848549 20.20395279 C-12.60284225 17.92739167 -12.60191921 15.65213989 -12.5949707 13.37548828 C-12.60083694 12.0810379 -12.60670319 10.78658752 -12.61274719 9.45291138 C-12.04366283 5.49711192 -10.91533739 3.86590132 -8.125 1.0625 C-5.36047967 -0.31976016 -3.0788637 -0.03275387 0 0 Z " fill="#0372BC" transform="translate(181.125,243.9375)"/>
<path d="M0 0 C2.32712127 1.38635925 4.52422696 2.88382437 6.73144531 4.45361328 C7.50230469 4.95054687 8.27316406 5.44748047 9.06738281 5.95947266 C12.79942985 8.57124853 15.32106321 10.69681866 16.27832031 15.27392578 C16.41738417 21.43107542 12.78353529 25.72800245 9.23144531 30.45361328 C8.60109375 31.35015625 7.97074219 32.24669922 7.32128906 33.17041016 C1.95749432 40.56932453 1.95749432 40.56932453 -3.14355469 42.01611328 C-8.96151227 42.62507287 -12.27903681 39.82380774 -16.89355469 36.64111328 C-17.6734375 36.15255859 -18.45332031 35.66400391 -19.25683594 35.16064453 C-22.39853392 33.00243461 -24.63590819 31.27422811 -26.08422852 27.68481445 C-26.92962732 22.81541154 -26.31860781 19.60380627 -23.68652344 15.42626953 C-22.5950847 13.95657044 -21.47574965 12.50722357 -20.33105469 11.07861328 C-19.77095703 10.33804687 -19.21085938 9.59748047 -18.63378906 8.83447266 C-17.59752703 7.46640868 -16.55018532 6.10660991 -15.48803711 4.75854492 C-14.30633807 3.22707842 -13.21655225 1.62560963 -12.14355469 0.01611328 C-7.8548525 -1.41345411 -4.23941461 -1.94588165 0 0 Z " fill="#0674BD" transform="translate(170.1435546875,354.98388671875)"/>
<path d="M0 0 C3.4700276 3.37790297 6.63699384 6.86495336 9.6875 10.625 C10.45449219 11.56601562 11.22148437 12.50703125 12.01171875 13.4765625 C15.41867595 17.80051996 16.61710634 20.27440202 16.51953125 25.703125 C15.71559517 29.25736871 13.70623634 30.80854443 10.921875 33.00390625 C9 34 9 34 5 34 C5.144375 34.70125 5.28875 35.4025 5.4375 36.125 C4.84432065 40.02303571 3.26620566 41.44628366 0.1796875 43.7890625 C-3.07680811 45.59822673 -5.57941239 46.25005048 -9.30859375 46.05078125 C-14.85769142 43.88429754 -18.3043383 38.39643806 -21.71337891 33.69824219 C-23.01808085 31.97613465 -24.43087537 30.41516608 -25.88671875 28.8203125 C-28 26 -28 26 -28.1171875 23.88671875 C-26.53722432 21.21845925 -24.57159203 19.71501986 -22.125 17.8125 C-21.135 17.03132813 -20.145 16.25015625 -19.125 15.4453125 C-17.578125 14.23488281 -17.578125 14.23488281 -16 13 C-14.03778174 11.40058772 -12.07928368 9.79659771 -10.125 8.1875 C-6.76727281 5.43616831 -3.39390049 2.70660523 0 0 Z " fill="#0674BD" transform="translate(139,323)"/>
<path d="M0 0 C5.611323 0.64429076 10.80406364 1.92963917 16.1875 3.625 C17.37762695 3.95951172 17.37762695 3.95951172 18.59179688 4.30078125 C22.76356997 5.62482007 25.26954514 6.71498222 27.55078125 10.5625 C29.49532829 15.17490267 28.87451033 16.74281792 27.1328125 21.23828125 C24.48296703 27.67802198 24.48296703 27.67802198 21 30 C20.61588725 32.609621 20.39706803 35.0058074 20.3125 37.625 C20.27833984 38.33140625 20.24417969 39.0378125 20.20898438 39.765625 C20.12648692 41.50985688 20.06156665 43.25490395 20 45 C18.51988629 44.69201674 17.04092675 44.378482 15.5625 44.0625 C14.73878906 43.88847656 13.91507813 43.71445312 13.06640625 43.53515625 C11 43 11 43 10 42 C9.92741054 39.81360547 9.91626217 37.62499611 9.9375 35.4375 C9.94652344 34.23996094 9.95554688 33.04242188 9.96484375 31.80859375 C9.97644531 30.88175781 9.98804688 29.95492188 10 29 C7.36 28.34 4.72 27.68 2 27 C1.87625 27.70125 1.7525 28.4025 1.625 29.125 C0.96161655 32.17656387 0.02788045 35.05340938 -1 38 C-4.75519057 37.48792856 -7.66688525 36.7824918 -11 35 C-9.48406093 27.21207125 -7.0210974 19.90859062 -4.375 12.4375 C-3.95476562 11.23802734 -3.53453125 10.03855469 -3.1015625 8.80273438 C-2.07225134 5.86685823 -1.03830116 2.93270619 0 0 Z " fill="#0674BD" transform="translate(192,372)"/>
<path d="M0 0 C2.97 0 5.94 0 9 0 C9.06958568 7.99740886 9.12285447 15.99469069 9.15543652 23.99232769 C9.17107623 27.70617574 9.19228309 31.41981628 9.22631836 35.13354492 C9.25897295 38.71916041 9.27686576 42.30457662 9.28463173 45.89032936 C9.29016435 47.25665231 9.30096836 48.62296465 9.31719017 49.9892025 C9.33904275 51.90634857 9.34022607 53.82369622 9.34057617 55.7409668 C9.35056892 57.37644722 9.35056892 57.37644722 9.36076355 59.04496765 C8.94637806 62.43922002 8.03431806 64.27269071 6 67 C2.53322756 69.31118163 1.23668119 69.24417896 -2.84838867 69.22705078 C-4.64991646 69.22682419 -4.64991646 69.22682419 -6.48783875 69.22659302 C-7.78478165 69.21627045 -9.08172455 69.20594788 -10.41796875 69.1953125 C-11.75889373 69.19158155 -13.09982144 69.18873497 -14.44075012 69.18673706 C-17.96714833 69.17910699 -21.49338134 69.15946403 -25.01971436 69.1373291 C-28.61923996 69.1168571 -32.21879231 69.10773245 -35.81835938 69.09765625 C-42.87897376 69.07621745 -49.93947609 69.04208913 -57 69 C-54.11947475 66.75531899 -51.96939009 65.49584326 -48.40234375 64.6484375 C-47.08556641 64.33169067 -47.08556641 64.33169067 -45.7421875 64.00854492 C-44.81664062 63.7994751 -43.89109375 63.59040527 -42.9375 63.375 C-41.98230469 63.15626221 -41.02710938 62.93752441 -40.04296875 62.7121582 C-26.37839759 59.66353078 -14.44695802 60 0 60 C0 40.2 0 20.4 0 0 Z " fill="#48B1E5" transform="translate(320,262)"/>
<path d="M0 0 C4.32425093 1.40245976 5.072973 2.09729734 8 6 C4.7 9.96 1.4 13.92 -2 18 C-1.34 19.32 -0.68 20.64 0 22 C3.91939465 18.19588166 7.49102731 14.18423892 11 10 C12.98 11.32 14.96 12.64 17 14 C15.65871528 18.42623956 13.32210582 21.03168193 10.14453125 24.25390625 C8.78593208 25.9447071 8.78593208 25.9447071 9.13671875 28.08984375 C9.95679562 30.35380631 9.95679562 30.35380631 13 32 C13.24492187 31.44828125 13.48984375 30.8965625 13.7421875 30.328125 C15.25738114 27.52360509 17.11084126 25.21896877 19.125 22.75 C19.84945312 21.85796875 20.57390625 20.9659375 21.3203125 20.046875 C21.87460937 19.37140625 22.42890625 18.6959375 23 18 C25.49361571 19.20381448 27.68143083 20.45428722 30 22 C29.39706192 25.45819772 28.13001446 27.37766511 25.875 30.0390625 C25.25109375 30.78414063 24.6271875 31.52921875 23.984375 32.296875 C23.32953125 33.06515625 22.6746875 33.8334375 22 34.625 C20.70676613 36.15753305 19.41502439 37.69132686 18.125 39.2265625 C17.55007813 39.90283691 16.97515625 40.57911133 16.3828125 41.27587891 C14.93156348 42.96125348 14.93156348 42.96125348 14 45 C10.94573165 44.40803271 9.07732732 43.52750005 6.6796875 41.55859375 C6.06625488 41.06093506 5.45282227 40.56327637 4.82080078 40.05053711 C4.17868652 39.51823486 3.53657227 38.98593262 2.875 38.4375 C1.53665322 37.34351154 0.1981109 36.24976225 -1.140625 35.15625 C-1.79482422 34.61871094 -2.44902344 34.08117187 -3.12304688 33.52734375 C-4.78923468 32.17150726 -6.47126931 30.84345929 -8.171875 29.53125 C-9.06390625 28.8403125 -9.9559375 28.149375 -10.875 27.4375 C-11.65617187 26.83808594 -12.43734375 26.23867188 -13.2421875 25.62109375 C-15 24 -15 24 -16 21 C-14.3669025 18.61914724 -12.71902849 16.45724623 -10.875 14.25 C-9.89166842 13.04815029 -8.90989261 11.84502596 -7.9296875 10.640625 C-7.44467773 10.04701172 -6.95966797 9.45339844 -6.45996094 8.84179688 C-4.18782958 5.97541578 -2.09727326 2.99610466 0 0 Z " fill="#0674BD" transform="translate(360,323)"/>
<path d="M0 0 C1.35439668 2.70879335 1.06501451 5.00933268 1 8 C-1.26999825 8.50377768 -3.54103003 9.00290019 -5.8125 9.5 C-7.07707031 9.7784375 -8.34164063 10.056875 -9.64453125 10.34375 C-13 11 -13 11 -16 11 C-16 12.65 -16 14.3 -16 16 C-15.27554687 15.855625 -14.55109375 15.71125 -13.8046875 15.5625 C-3.72416472 13.62703963 -3.72416472 13.62703963 1 14 C2 15 2 15 2.0625 18.5625 C2.041875 19.696875 2.02125 20.83125 2 22 C-3.45461169 23.38529821 -8.36718401 24.2396943 -14 24 C-13.67 26.31 -13.34 28.62 -13 31 C-12.13117188 30.7834375 -11.26234375 30.566875 -10.3671875 30.34375 C-9.21476562 30.0653125 -8.06234375 29.786875 -6.875 29.5 C-5.73804688 29.2215625 -4.60109375 28.943125 -3.4296875 28.65625 C-0.18533302 28.03546235 2.70814457 27.87993232 6 28 C6.495 32.455 6.495 32.455 7 37 C3.10529437 37.67336904 -0.79092933 38.33751584 -4.6875 39 C-5.79029297 39.19078125 -6.89308594 39.3815625 -8.02929688 39.578125 C-9.09599609 39.75859375 -10.16269531 39.9390625 -11.26171875 40.125 C-12.73064575 40.37636719 -12.73064575 40.37636719 -14.22924805 40.6328125 C-16.85911357 40.98132935 -19.35123122 41.06764613 -22 41 C-22.8577799 36.21339047 -23.71218904 31.42619619 -24.56347656 26.63842773 C-24.85356503 25.0096816 -25.1445748 23.38109928 -25.43652344 21.75268555 C-25.8559397 19.41237131 -26.272042 17.07148848 -26.6875 14.73046875 C-26.88436401 13.63813179 -26.88436401 13.63813179 -27.08520508 12.52372742 C-27.59482126 9.63686371 -28 6.93833134 -28 4 C-24.64793462 3.32246925 -21.29306425 2.6599648 -17.9375 2 C-16.99455078 1.80921875 -16.05160156 1.6184375 -15.08007812 1.421875 C-9.95330295 0.42152862 -5.22312681 -0.231817 0 0 Z " fill="#0774BD" transform="translate(288,379)"/>
<path d="M0 0 C1.04220703 -0.00483398 1.04220703 -0.00483398 2.10546875 -0.00976562 C7.73299694 0.04852327 12.25706169 0.68404096 16.5625 4.4375 C18.77668654 8.51160324 18.03728369 10.82710521 17.125 15.3125 C13.825 15.3125 10.525 15.3125 7.125 15.3125 C6.795 13.3325 6.465 11.3525 6.125 9.3125 C3.485 9.3125 0.845 9.3125 -1.875 9.3125 C-2.205 15.5825 -2.535 21.8525 -2.875 28.3125 C0.095 28.3125 3.065 28.3125 6.125 28.3125 C6.455 26.9925 6.785 25.6725 7.125 24.3125 C10.425 24.3125 13.725 24.3125 17.125 24.3125 C17.83637725 32.25621257 17.83637725 32.25621257 15.0625 36.375 C9.78498869 40.03643129 2.19172195 38.91222798 -3.875 38.3125 C-7.79588325 37.55959167 -10.21180252 36.84856697 -13.3203125 34.3359375 C-15.63735726 29.82992582 -15.13582655 25.89812703 -14.75 20.9375 C-14.70101562 20.01710938 -14.65203125 19.09671875 -14.6015625 18.1484375 C-13.81203828 5.58782487 -13.81203828 5.58782487 -10.2421875 1.39453125 C-6.85697022 -0.15283704 -3.64551385 -0.0836127 0 0 Z " fill="#0A76BE" transform="translate(238.875,382.6875)"/>
<path d="M0 0 C2.31 0 4.62 0 7 0 C7 25.74 7 51.48 7 78 C11.62 78.66 16.24 79.32 21 80 C24.11204613 80.98892211 26.87110621 81.93738635 29.8125 83.25 C30.52462646 83.55429932 31.23675293 83.85859863 31.97045898 84.17211914 C37.37346698 86.54954133 42.32945207 89.36735161 47 93 C43.66270886 94.11243038 42.99598795 93.91314617 39.7890625 92.85546875 C38.96269287 92.59145264 38.13632324 92.32743652 37.28491211 92.05541992 C36.40714111 91.76900635 35.52937012 91.48259277 34.625 91.1875 C23.01964384 87.55375135 12.14877891 86.10443445 0 85 C0 56.95 0 28.9 0 0 Z " fill="#0C77BE" transform="translate(192,232)"/>
<path d="M0 0 C2.31 0 4.62 0 7 0 C7 28.05 7 56.1 7 85 C-4.88 86.485 -4.88 86.485 -17 88 C-26.03745213 90.06321843 -26.03745213 90.06321843 -34.70703125 93.18359375 C-37 94 -37 94 -40 93 C-33.06078364 88.24512827 -26.24354187 84.39051336 -18.3125 81.5625 C-17.63711182 81.31612793 -16.96172363 81.06975586 -16.26586914 80.81591797 C-10.63336547 78.90744532 -6.22138724 78.62213872 0 78 C0 52.26 0 26.52 0 0 Z " fill="#4EB3E5" transform="translate(299,232)"/>
<path d="M0 0 C0.7115625 -0.02384766 1.423125 -0.04769531 2.15625 -0.07226562 C5.65328894 -0.06247914 7.66734773 0.30985271 10.46875 2.4375 C12.70596515 7.00324521 12.58242871 11.10715251 12.5 16.125 C12.51546875 17.07052734 12.5309375 18.01605469 12.546875 18.99023438 C12.52445734 22.9553574 12.49083257 25.72232486 10.46875 29.18359375 C7.01484059 31.11275518 3.85143264 31.1462268 0 31.0625 C-0.7115625 31.07796875 -1.423125 31.0934375 -2.15625 31.109375 C-5.33021544 31.08568869 -7.67096529 30.74159484 -10.46875 29.21875 C-12.97278735 24.87501174 -12.57624564 20.48034359 -12.5 15.5625 C-12.51546875 14.56476563 -12.5309375 13.56703125 -12.546875 12.5390625 C-12.50883106 5.44386809 -12.50883106 5.44386809 -10.46875 1.91015625 C-7.01281863 0.02361144 -3.83948851 -0.05912256 0 0 Z " fill="#F1F3ED" transform="translate(108,250.4375)"/>
<path d="M0 0 C2.8600444 1.81119091 4.17485023 3.12379497 5.18359375 6.3828125 C5.32764187 13.44117019 1.44445751 19.30982769 -1.81640625 25.3828125 C-10.45205765 22.23497828 -18.67538463 18.65134816 -26.81640625 14.3828125 C-25.52472098 10.39569266 -24.14033937 6.49202285 -22.50390625 2.6328125 C-22.11589844 1.68921875 -21.72789063 0.745625 -21.328125 -0.2265625 C-16.27729791 -8.21391697 -6.57547919 -3.5029189 0 0 Z " fill="#0B77BE" transform="translate(113.81640625,181.6171875)"/>
<path d="M0 0 C6.0787367 0.79349477 11.51895429 5.08491103 16 9 C17.45697058 11.39138028 17.7614149 12.70493853 17.703125 15.48828125 C16.02171301 21.49465851 12.34415825 27.77283147 7.08203125 31.27734375 C3.1513208 32.6049347 0.5961076 31.67113235 -3 30 C-4.96103977 28.83025698 -6.89851383 27.62024401 -8.8125 26.375 C-9.78832031 25.74335938 -10.76414062 25.11171875 -11.76953125 24.4609375 C-12.50558594 23.97882813 -13.24164063 23.49671875 -14 23 C-12.30087322 17.91279407 -9.36405858 13.69417219 -6.4375 9.25 C-5.93025391 8.47011719 -5.42300781 7.69023438 -4.90039062 6.88671875 C-1.16171288 1.16171288 -1.16171288 1.16171288 0 0 Z " fill="#0976BD" transform="translate(335,106)"/>
<path d="M0 0 C4.29 0 8.58 0 13 0 C13 4.29 13 8.58 13 13 C10.4609375 13.1953125 7.921875 13.390625 5.3828125 13.5859375 C2.82058097 13.79568132 2.82058097 13.79568132 1 16 C0.6925109 18.90664221 0.4889338 21.71185845 0.375 24.625 C0.25125 27.38875 0.1275 30.1525 0 33 C-6.6 33 -13.2 33 -20 33 C-20 26.4 -20 19.8 -20 13 C-11.625 12.625 -11.625 12.625 -8.99072266 12.52197266 C-4.52456182 12.45208915 -4.52456182 12.45208915 -1 10 C-0.53837573 7.56747339 -0.53837573 7.56747339 -0.375 4.875 C-0.25125 3.26625 -0.1275 1.6575 0 0 Z " fill="#45B0E5" transform="translate(340,220)"/>
<path d="M0 0 C1.9375 0.6875 1.9375 0.6875 4 2 C4.875 4.15625 4.875 4.15625 5 7 C3.77884509 9.46251806 2.58374055 11.55704087 1.0625 13.8125 C0.48338867 14.7087207 0.48338867 14.7087207 -0.10742188 15.62304688 C-1.05843338 17.09065722 -2.027486 18.5465491 -3 20 C-2.11957031 19.77183594 -1.23914063 19.54367188 -0.33203125 19.30859375 C0.82941406 19.02113281 1.99085938 18.73367187 3.1875 18.4375 C4.33605469 18.14746094 5.48460937 17.85742188 6.66796875 17.55859375 C9.96022278 17.0066684 11.91388022 16.73375902 15 18 C16.3125 20.5625 16.3125 20.5625 17 23 C14.6262055 24.75165497 12.2510142 26.50136034 9.875 28.25 C9.20984375 28.74113281 8.5446875 29.23226562 7.859375 29.73828125 C-3.3765625 38 -3.3765625 38 -6 38 C-7.625 35.5 -7.625 35.5 -9 33 C-4.545 29.535 -4.545 29.535 0 26 C-3.96 26.33 -7.92 26.66 -12 27 C-13 24 -13 24 -11.78515625 21.51953125 C-11.21667969 20.62621094 -10.64820313 19.73289063 -10.0625 18.8125 C-9.49660156 17.91144531 -8.93070312 17.01039063 -8.34765625 16.08203125 C-7.68056641 15.05142578 -7.68056641 15.05142578 -7 14 C-11.455 16.97 -11.455 16.97 -16 20 C-20 18 -20 18 -21 15 C-20.09906616 14.37170288 -20.09906616 14.37170288 -19.17993164 13.73071289 C-16.47339244 11.84235044 -13.7679334 9.95244634 -11.0625 8.0625 C-10.11697266 7.40314453 -9.17144531 6.74378906 -8.19726562 6.06445312 C-7.29814453 5.43603516 -6.39902344 4.80761719 -5.47265625 4.16015625 C-4.64000244 3.57886963 -3.80734863 2.99758301 -2.94946289 2.39868164 C-1.09125213 1.14535938 -1.09125213 1.14535938 0 0 Z " fill="#0A76BE" transform="translate(382,146)"/>
<path d="M0 0 C3.63 7.92 7.26 15.84 11 24 C14.8308393 23.23383214 17.28247498 22.55040659 20.6875 20.9375 C24.79003559 19 24.79003559 19 27 19 C27.99 21.64 28.98 24.28 30 27 C18.12 32.445 18.12 32.445 6 38 C3.38060302 34.50747069 1.69341102 31.51019636 -0.13671875 27.58984375 C-0.42102249 26.9811293 -0.70532623 26.37241486 -0.99824524 25.74525452 C-1.59468076 24.46464127 -2.18873122 23.18291479 -2.78051758 21.90014648 C-3.68777427 19.9369065 -4.60607789 17.97910281 -5.52539062 16.02148438 C-6.10483935 14.77374967 -6.68363811 13.52571288 -7.26171875 12.27734375 C-7.78725342 11.14546631 -8.31278809 10.01358887 -8.85424805 8.84741211 C-10 6 -10 6 -10 3 C-6.27034861 0.96564469 -4.33094958 0 0 0 Z " fill="#0774BD" transform="translate(303,373)"/>
<path d="M0 0 C1.66992188 1.8359375 1.66992188 1.8359375 3.46875 4.375 C4.44908203 5.72851562 4.44908203 5.72851562 5.44921875 7.109375 C6.81640625 9.03645833 8.18359375 10.96354167 9.55078125 12.890625 C10.20433594 13.79296875 10.85789062 14.6953125 11.53125 15.625 C12.12486328 16.46289062 12.71847656 17.30078125 13.33007812 18.1640625 C13.88115234 18.76992188 14.43222656 19.37578125 15 20 C19.03381023 20 20.49433637 18.40426438 23.6875 16 C25.17830078 14.88625 25.17830078 14.88625 26.69921875 13.75 C27.45847656 13.1725 28.21773438 12.595 29 12 C31.5625 14.25 31.5625 14.25 34 17 C33.86476215 19.77116527 33.21299564 20.79021416 31.23413086 22.73925781 C30.48526611 23.30483398 29.73640137 23.87041016 28.96484375 24.453125 C28.15595703 25.071875 27.34707031 25.690625 26.51367188 26.328125 C25.66353516 26.96234375 24.81339844 27.5965625 23.9375 28.25 C23.08349609 28.8996875 22.22949219 29.549375 21.34960938 30.21875 C19.2397966 31.82173624 17.12327225 33.41491058 15 35 C11.66780051 33.59234713 9.93908137 32.01347718 7.7578125 29.1484375 C7.16613281 28.37886719 6.57445312 27.60929687 5.96484375 26.81640625 C5.35769531 26.01074219 4.75054687 25.20507812 4.125 24.375 C3.52558594 23.59253906 2.92617188 22.81007813 2.30859375 22.00390625 C-1.49514343 17.02851901 -5.24978431 12.01580572 -9 7 C-6.9696035 2.63239154 -5.10341613 0 0 0 Z " fill="#0674BD" transform="translate(329,358)"/>
<path d="M0 0 C3.96 0 7.92 0 12 0 C12.495 1.98 12.495 1.98 13 4 C14.20398438 3.97679687 15.40796875 3.95359375 16.6484375 3.9296875 C18.22395215 3.91093137 19.79947348 3.89273101 21.375 3.875 C22.1690625 3.85824219 22.963125 3.84148437 23.78125 3.82421875 C25.85492015 3.80664527 27.92883241 3.89664832 30 4 C32 6 32 6 32.25 8.5 C32 11 32 11 30 13 C27.9059906 13.24723816 27.9059906 13.24723816 25.29077148 13.24291992 C23.82431435 13.24753487 23.82431435 13.24753487 22.32823181 13.25224304 C21.26987625 13.24505753 20.21152069 13.23787201 19.12109375 13.23046875 C17.4974868 13.22978142 17.4974868 13.22978142 15.84107971 13.2290802 C13.55037339 13.22605559 11.25966916 13.21816309 8.96899414 13.20581055 C5.44865697 13.18755785 1.92858266 13.18530078 -1.59179688 13.18554688 C-3.81250229 13.18063175 -6.03320591 13.17480346 -8.25390625 13.16796875 C-9.31428604 13.16685593 -10.37466583 13.1657431 -11.46717834 13.16459656 C-12.44166428 13.15821671 -13.41615021 13.15183685 -14.42016602 13.14526367 C-15.71350609 13.13954597 -15.71350609 13.13954597 -17.03297424 13.13371277 C-19 13 -19 13 -20 12 C-20.1875 9.0625 -20.1875 9.0625 -20 6 C-18 4 -18 4 -14.0859375 3.8046875 C-12.51550649 3.81799624 -10.94513779 3.84186398 -9.375 3.875 C-8.57320312 3.88402344 -7.77140625 3.89304687 -6.9453125 3.90234375 C-4.96341477 3.92593777 -2.98167019 3.96180935 -1 4 C-0.67 2.68 -0.34 1.36 0 0 Z " fill="#4EB3E5" transform="translate(243,336)"/>
<path d="M0 0 C5.445 1.98 5.445 1.98 11 4 C10.42878014 13.75583392 9.39476293 23.33144919 8 33 C2.125 31.125 2.125 31.125 1 30 C0.95919217 28.00041636 0.95745644 25.99954746 1 24 C-3.455 23.01 -3.455 23.01 -8 22 C-8.66 22.99 -9.32 23.98 -10 25 C-14.75 24.125 -14.75 24.125 -17 23 C-15.49499231 18.2547993 -12.85377759 15.16211353 -9.625 11.5 C-8.65826463 10.38592796 -7.69210965 9.27135201 -6.7265625 8.15625 C-6.26540039 7.62644531 -5.80423828 7.09664063 -5.32910156 6.55078125 C-3.49594299 4.41187176 -1.74240041 2.21309625 0 0 Z " fill="#0C77BE" transform="translate(311,94)"/>
<path d="M0 0 C2.64 0 5.28 0 8 0 C8 6.6 8 13.2 8 20 C8.99 20 9.98 20 11 20 C11 21.65 11 23.3 11 25 C10.01 25 9.02 25 8 25 C8 26.65 8 28.3 8 30 C5.36 30 2.72 30 0 30 C0 28.35 0 26.7 0 25 C-4.95 25 -9.9 25 -15 25 C-15 18.25128749 -15 18.25128749 -12.2265625 15.01953125 C-11.6490625 14.33052734 -11.0715625 13.64152344 -10.4765625 12.93164062 C-9.86554688 12.23232422 -9.25453125 11.53300781 -8.625 10.8125 C-7.42890907 9.40300395 -6.23356612 7.99287275 -5.0390625 6.58203125 C-4.50490723 5.96561768 -3.97075195 5.3492041 -3.42041016 4.71411133 C-1.82238315 2.84600548 -1.82238315 2.84600548 0 0 Z " fill="#F4F5ED" transform="translate(422,251)"/>
<path d="M0 0 C3.96 0 7.92 0 12 0 C14.31 9.24 16.62 18.48 19 28 C16.69 28 14.38 28 12 28 C11.34 26.02 10.68 24.04 10 22 C6.7 22 3.4 22 0 22 C-0.33 23.65 -0.66 25.3 -1 27 C-3.31 27 -5.62 27 -8 27 C-7.39795395 20.81842856 -5.55317819 15.38166239 -3.4375 9.5625 C-3.10814453 8.64017578 -2.77878906 7.71785156 -2.43945312 6.76757812 C-1.63219754 4.50960236 -0.81690997 2.25450088 0 0 Z " fill="#0775BD" transform="translate(250,83)"/>
<path d="M0 0 C1.9375 2 1.9375 2 3 4 C-1.40716912 7.90349265 -1.40716912 7.90349265 -4.6875 8.4375 C-5.8321875 8.7159375 -5.8321875 8.7159375 -7 9 C-8.37466625 11.47636012 -8.37466625 11.47636012 -9 14 C-4.71402069 18.8878708 -4.71402069 18.8878708 0.8125 22.0625 C3.21330768 22.24444134 3.21330768 22.24444134 5 20 C5.16687448 17.41645782 5.16687448 17.41645782 5 15 C3.02 15.99 3.02 15.99 1 17 C0.34 16.34 -0.32 15.68 -1 15 C-0.88679697 11.71711224 0.28284863 10.69645513 2.5625 8.25 C3.7690625 7.13625 3.7690625 7.13625 5 6 C9.98012761 7.50912958 13.24259942 10.55661849 17 14 C16.1875 15.9375 16.1875 15.9375 15 18 C14.01 18.33 13.02 18.66 12 19 C10.99003993 20.72670592 9.98385394 22.45619167 9.0234375 24.2109375 C7.604772 26.69089475 6.33699047 28.33072109 4 30 C0.76572343 30.4364325 -1.78954519 30.743842 -4.66186523 28.97875977 C-6.30007167 27.57599635 -7.81076655 26.1102636 -9.3125 24.5625 C-12.83332425 20.85199162 -12.83332425 20.85199162 -17 18 C-17.38707746 13.75275279 -17.35986084 11.57273627 -15.05859375 7.91015625 C-14.19363281 6.97042969 -13.32867187 6.03070313 -12.4375 5.0625 C-11.59058594 4.10472656 -10.74367188 3.14695313 -9.87109375 2.16015625 C-6.30156645 -0.5254881 -4.37019013 -0.58789462 0 0 Z " fill="#0B77BE" transform="translate(131,136)"/>
<path d="M0 0 C1.26513672 1.3894043 1.26513672 1.3894043 2.6796875 3.32421875 C3.19660156 4.02353516 3.71351563 4.72285156 4.24609375 5.44335938 C4.78363281 6.18392578 5.32117188 6.92449219 5.875 7.6875 C6.93420668 9.12941274 7.99408816 10.57083007 9.0546875 12.01171875 C9.55709961 12.69927246 10.05951172 13.38682617 10.57714844 14.09521484 C11.79900753 15.73092944 13.08519304 17.31824269 14.3828125 18.89453125 C16 21 16 21 16 23 C13.35261084 24.4606285 12.10551666 25 9 25 C8.34 24.01 7.68 23.02 7 22 C4.03 22.66 1.06 23.32 -2 24 C-2 25.98 -2 27.96 -2 30 C-4.64738916 31.4606285 -5.89448334 32 -9 32 C-11.29612756 13.17995444 -11.29612756 13.17995444 -11 4 C-9.5437455 3.32880451 -8.08492133 2.66318193 -6.625 2 C-5.81289062 1.62875 -5.00078125 1.2575 -4.1640625 0.875 C-2 0 -2 0 0 0 Z " fill="#0875BD" transform="translate(192,93)"/>
<path d="M0 0 C1.96453125 -0.01546875 1.96453125 -0.01546875 3.96875 -0.03125 C7.5 0.5 7.5 0.5 9.91015625 2.26953125 C12.10748826 5.35227468 12.47871788 7.30670089 12.3671875 11.04296875 C10.48178962 16.38492942 4.97665165 19.37123254 0.5 22.5 C0.17 22.83 -0.16 23.16 -0.5 23.5 C3.46 23.83 7.42 24.16 11.5 24.5 C11.5 26.48 11.5 28.46 11.5 30.5 C3.91 30.5 -3.68 30.5 -11.5 30.5 C-11.5 23.5 -11.5 23.5 -8.9453125 20.4453125 C-7.85589732 19.48514997 -6.74832867 18.54525552 -5.625 17.625 C-5.06941406 17.1403125 -4.51382813 16.655625 -3.94140625 16.15625 C-1.879594 14.37762642 0.05508226 12.72245887 2.5 11.5 C3.15555119 8.97266765 3.15555119 8.97266765 3.5 6.5 C1.52 6.83 -0.46 7.16 -2.5 7.5 C-2.83 8.82 -3.16 10.14 -3.5 11.5 C-6.14 11.5 -8.78 11.5 -11.5 11.5 C-11.98529412 5.19117647 -11.98529412 5.19117647 -9.953125 2.296875 C-6.56431909 -0.18537136 -4.16353349 -0.03278373 0 0 Z " fill="#F3F4ED" transform="translate(79.5,250.5)"/>
<path d="M0 0 C1.96453125 -0.01546875 1.96453125 -0.01546875 3.96875 -0.03125 C7.5 0.5 7.5 0.5 9.90625 2.2734375 C12.0987786 5.33652892 12.53670103 7.24641738 12.4375 10.97265625 C10.36095058 16.57068738 4.225173 20.13190793 -0.5 23.5 C3.46 23.83 7.42 24.16 11.5 24.5 C11.5 26.48 11.5 28.46 11.5 30.5 C3.91 30.5 -3.68 30.5 -11.5 30.5 C-11.5 23.5 -11.5 23.5 -9.234375 20.734375 C-8.24953125 19.91453125 -7.2646875 19.0946875 -6.25 18.25 C-5.27546875 17.41984375 -4.3009375 16.5896875 -3.296875 15.734375 C-0.5 13.5 -0.5 13.5 1.859375 11.890625 C2.40078125 11.43171875 2.9421875 10.9728125 3.5 10.5 C3.5 9.51 3.5 8.52 3.5 7.5 C1.52 7.5 -0.46 7.5 -2.5 7.5 C-2.83 8.82 -3.16 10.14 -3.5 11.5 C-6.14 11.5 -8.78 11.5 -11.5 11.5 C-11.98529412 5.19117647 -11.98529412 5.19117647 -9.953125 2.296875 C-6.56431909 -0.18537136 -4.16353349 -0.03278373 0 0 Z " fill="#F4F5ED" transform="translate(391.5,250.5)"/>
<path d="M0 0 C2.1474397 0.93860365 3.35338938 1.90218685 4.97900391 3.58081055 C5.77177734 4.38808594 5.77177734 4.38808594 6.58056641 5.21166992 C7.11939453 5.77563477 7.65822266 6.33959961 8.21337891 6.9206543 C8.76767578 7.48848633 9.32197266 8.05631836 9.89306641 8.64135742 C11.25672104 10.04027899 12.61098307 11.44834543 13.96337891 12.8581543 C13.30337891 14.1781543 12.64337891 15.4981543 11.96337891 16.8581543 C7.7365779 16.14761447 6.20549192 14.19803758 3.52587891 11.0378418 C3.01025391 10.64854492 2.49462891 10.25924805 1.96337891 9.8581543 C-0.19833181 10.09583101 -0.19833181 10.09583101 -2.03662109 10.8581543 C-1.62669922 11.32866211 -1.21677734 11.79916992 -0.79443359 12.28393555 C-0.25560547 12.90655273 0.28322266 13.52916992 0.83837891 14.1706543 C1.37205078 14.78553711 1.90572266 15.40041992 2.45556641 16.03393555 C3.96337891 17.8581543 3.96337891 17.8581543 5.96337891 20.8581543 C4.97337891 21.8481543 3.98337891 22.8381543 2.96337891 23.8581543 C-0.85346336 22.30314449 -3.22857842 19.82219935 -6.03662109 16.8581543 C-8.01662109 17.8481543 -8.01662109 17.8481543 -10.03662109 18.8581543 C-9.63830078 19.31706055 -9.23998047 19.7759668 -8.82958984 20.2487793 C-6.12520048 23.38087014 -3.45670339 26.49692889 -1.03662109 29.8581543 C-2.02662109 30.8481543 -3.01662109 31.8381543 -4.03662109 32.8581543 C-8.1103814 31.24804903 -10.80169178 28.31993159 -13.78662109 25.2331543 C-14.29322266 24.7175293 -14.79982422 24.2019043 -15.32177734 23.6706543 C-16.56466011 22.40432091 -17.80127385 21.1318399 -19.03662109 19.8581543 C-17.08600304 14.28306889 -13.77859387 11.08453248 -9.66162109 6.9831543 C-8.65228516 5.9312793 -8.65228516 5.9312793 -7.62255859 4.8581543 C-6.96771484 4.20073242 -6.31287109 3.54331055 -5.63818359 2.8659668 C-5.04344238 2.26413574 -4.44870117 1.66230469 -3.8359375 1.04223633 C-2.03662109 -0.1418457 -2.03662109 -0.1418457 0 0 Z " fill="#0B77BE" transform="translate(363.03662109375,125.141845703125)"/>
<path d="M0 0 C8.32641142 1.98961713 8.32641142 1.98961713 11 6 C11.1875 8.625 11.1875 8.625 11 11 C10 12 10 12 6.9375 12.0625 C5.968125 12.041875 4.99875 12.02125 4 12 C3.67 10.35 3.34 8.7 3 7 C0.69 6.67 -1.62 6.34 -4 6 C-4.66 10.95 -5.32 15.9 -6 21 C-3.69 21.33 -1.38 21.66 1 22 C1.33 21.01 1.66 20.02 2 19 C4.31 19.33 6.62 19.66 9 20 C8.5123095 25.48651817 8.5123095 25.48651817 6.29296875 27.7109375 C3.40484877 29.33458246 1.82761431 29.19743026 -1.4375 28.8125 C-2.36433594 28.71582031 -3.29117187 28.61914062 -4.24609375 28.51953125 C-7.08491234 27.98398108 -9.41485255 27.29035662 -12 26 C-15.1726236 21.2410646 -13.83470415 16.48325981 -13 11 C-11.08051053 2.80389771 -9.20693799 -0.742495 0 0 Z " fill="#0C77BE" transform="translate(286,86)"/>
<path d="M0 0 C1.76462683 3.08809695 2 4.23312136 2 8 C0.28515625 9.6328125 0.28515625 9.6328125 -1.9375 11.125 C-4.99928779 13.09073729 -4.99928779 13.09073729 -7 16 C-0.565 15.505 -0.565 15.505 6 15 C9 20.75 9 20.75 9 23 C6.24993392 23.0270203 3.50013454 23.04684883 0.75 23.0625 C-0.02730469 23.07087891 -0.80460937 23.07925781 -1.60546875 23.08789062 C-2.73662109 23.09272461 -2.73662109 23.09272461 -3.890625 23.09765625 C-4.92751465 23.10551147 -4.92751465 23.10551147 -5.98535156 23.11352539 C-8 23 -8 23 -10.06152344 22.40405273 C-13.19809236 21.75027168 -15.28200642 23.52282957 -18 25 C-18.66 25 -19.32 25 -20 25 C-21.4606285 22.35261084 -22 21.10551666 -22 18 C-21.45730469 17.76925781 -20.91460937 17.53851563 -20.35546875 17.30078125 C-19.28232422 16.81158203 -19.28232422 16.81158203 -18.1875 16.3125 C-17.47980469 15.99925781 -16.77210938 15.68601563 -16.04296875 15.36328125 C-13.44110157 13.62704483 -12.54900039 11.70082118 -11 9 C-9.52866222 7.35031825 -8.00571401 5.74537982 -6.4375 4.1875 C-5.65246094 3.39730469 -4.86742187 2.60710937 -4.05859375 1.79296875 C-2 0 -2 0 0 0 Z " fill="#1079BF" transform="translate(404,176)"/>
<path d="M0 0 C1.32 0.66 2.64 1.32 4 2 C3.6875 3.875 3.6875 3.875 3 6 C2.01 6.66 1.02 7.32 0 8 C1.29815782 12.43865072 3.03495559 15.86638509 5.625 19.6875 C9 24.66734694 9 24.66734694 9 28 C6 30 6 30 3.95996094 29.83178711 C1.56439784 28.81513496 0.94124523 27.9209989 -0.359375 25.69140625 C-0.94912109 24.69463867 -0.94912109 24.69463867 -1.55078125 23.67773438 C-1.94652344 22.97970703 -2.34226563 22.28167969 -2.75 21.5625 C-3.16121094 20.86833984 -3.57242188 20.17417969 -3.99609375 19.45898438 C-7 14.30444093 -7 14.30444093 -7 12 C-8.423125 12.99 -8.423125 12.99 -9.875 14 C-13 16 -13 16 -15 16 C-15.66 14.35 -16.32 12.7 -17 11 C-16.02417969 10.37351562 -15.04835937 9.74703125 -14.04296875 9.1015625 C-12.75780386 8.27605512 -11.47264808 7.45053355 -10.1875 6.625 C-9.54490234 6.2125 -8.90230469 5.8 -8.24023438 5.375 C-5.48042011 3.60185508 -2.72947292 1.81964862 0 0 Z " fill="#0A76BE" transform="translate(167,103)"/>
<path d="M0 0 C0.67055285 2.93666226 1.33659053 5.87422359 2 8.8125 C2.19078125 9.64587891 2.3815625 10.47925781 2.578125 11.33789062 C2.75859375 12.14033203 2.9390625 12.94277344 3.125 13.76953125 C3.29257813 14.50792236 3.46015625 15.24631348 3.6328125 16.00708008 C4 18 4 18 4 21 C4.60328125 20.855625 5.2065625 20.71125 5.828125 20.5625 C6.62734375 20.376875 7.4265625 20.19125 8.25 20 C9.03890625 19.814375 9.8278125 19.62875 10.640625 19.4375 C13 19 13 19 17 19 C17 20.65 17 22.3 17 24 C15.52433205 24.4898355 14.04417897 24.9661592 12.5625 25.4375 C11.73878906 25.70433594 10.91507813 25.97117187 10.06640625 26.24609375 C6.07417694 27.22762274 2.08772398 27.62235126 -2 28 C-2.84228458 24.43955555 -3.67223903 20.87634656 -4.5 17.3125 C-4.73847656 16.30509766 -4.97695312 15.29769531 -5.22265625 14.25976562 C-5.44824219 13.28330078 -5.67382812 12.30683594 -5.90625 11.30078125 C-6.11572266 10.40528564 -6.32519531 9.50979004 -6.54101562 8.5871582 C-6.99994512 6.00030935 -7.08261971 3.62111026 -7 1 C-4.50935112 0.31292445 -2.62113708 0 0 0 Z " fill="#0C77BE" transform="translate(213,87)"/>
<path d="M0 0 C3.98467756 0.82292254 6.67947232 2.66053731 10 5 C9.51814387 9.7221901 7.30336567 12.70054372 4.4375 16.3125 C4.01275391 16.86228516 3.58800781 17.41207031 3.15039062 17.97851562 C2.10818741 19.3251827 1.05516157 20.66346201 0 22 C-3.95008059 21.31620454 -6.63457018 20.21156817 -10 18 C-9.56869049 12.77723396 -7.64714336 9.60633403 -4.4375 5.625 C-4.01275391 5.07972656 -3.58800781 4.53445313 -3.15039062 3.97265625 C-2.11036413 2.64048748 -1.05655762 1.31909618 0 0 Z " fill="#F9F7EE" transform="translate(165,364)"/>
<path d="M0 0 C1.32 0.66 2.64 1.32 4 2 C3.92394531 2.71671875 3.84789062 3.4334375 3.76953125 4.171875 C4.06976672 7.8561204 5.377486 9.39770915 7.6875 12.25 C8.37199219 13.12140625 9.05648437 13.9928125 9.76171875 14.890625 C12.2393756 17.22558957 13.65915464 17.69575489 17 18 C17.33 19.32 17.66 20.64 18 22 C16.71372289 23.17260611 15.42080217 24.3379283 14.125 25.5 C13.40570313 26.1496875 12.68640625 26.799375 11.9453125 27.46875 C10 29 10 29 8 29 C6.06312769 24.35150646 6.06312769 24.35150646 5.65625 22.0859375 C4.80356073 19.37560375 3.37613155 17.9350408 1.4375 15.875 C-2 12.20925553 -2 12.20925553 -2 10 C-3.32 10.33 -4.64 10.66 -6 11 C-6.66 9.68 -7.32 8.36 -8 7 C-5.36 4.69 -2.72 2.38 0 0 Z " fill="#0C77BE" transform="translate(144,118)"/>
<path d="M0 0 C0.33 0.99 0.66 1.98 1 3 C1.99 3.33 2.98 3.66 4 4 C4 13.57 4 23.14 4 33 C1.03 33.495 1.03 33.495 -2 34 C-5.84207684 30.15792316 -4.36986635 23.30485118 -4.375 18.125 C-4.39949219 16.83207031 -4.42398438 15.53914062 -4.44921875 14.20703125 C-4.45308594 12.96566406 -4.45695313 11.72429687 -4.4609375 10.4453125 C-4.46915527 9.30594238 -4.47737305 8.16657227 -4.48583984 6.99267578 C-3.90379907 3.40742159 -2.77597436 2.24924749 0 0 Z " fill="#0B77BE" transform="translate(160,205)"/>
<path d="M0 0 C1.9375 0.75 1.9375 0.75 4 2 C4.0721875 2.598125 4.144375 3.19625 4.21875 3.8125 C5.46108057 7.2910256 8.49904176 8.50683093 11.5625 10.25 C12.48579102 10.79527344 12.48579102 10.79527344 13.42773438 11.3515625 C14.94526033 12.2456088 16.47180439 13.12431628 18 14 C18 13.34 18 12.68 18 12 C19.32 12.33 20.64 12.66 22 13 C22 17.13978192 21.67617664 17.98573504 19.5 21.25 C19.0359375 21.95640625 18.571875 22.6628125 18.09375 23.390625 C17.7328125 23.92171875 17.371875 24.4528125 17 25 C15.125 24.3125 15.125 24.3125 13 23 C12.68804687 22.20335937 12.37609375 21.40671875 12.0546875 20.5859375 C10.70253708 17.27066498 9.18360522 16.41296803 6.125 14.625 C5.26132813 14.10164062 4.39765625 13.57828125 3.5078125 13.0390625 C0.65091676 11.85536427 -0.14431268 12.17555471 -3 13 C-3.99 12.34 -4.98 11.68 -6 11 C-5.39305845 7.84669446 -4.3583335 5.81111133 -2.4375 3.25 C-1.98246094 2.63640625 -1.52742188 2.0228125 -1.05859375 1.390625 C-0.70925781 0.93171875 -0.35992187 0.4728125 0 0 Z " fill="#0A76BE" transform="translate(107,158)"/>
<path d="M0 0 C5 2 5 2 7 4 C7.47927094 7.24052508 7.21508151 8.65488196 5.46875 11.45703125 C4.8190625 12.23433594 4.169375 13.01164062 3.5 13.8125 C2.8503125 14.60269531 2.200625 15.39289063 1.53125 16.20703125 C1.0259375 16.79871094 0.520625 17.39039063 0 18 C-4.78480933 17.46835452 -5.23111619 16.76888381 -9 13 C-6.03 8.71 -3.06 4.42 0 0 Z " fill="#F6F6EE" transform="translate(338,114)"/>
<path d="M0 0 C5.77016096 0.35327516 9.98672841 2.2003808 15 5 C14.5020163 8.73487777 14.12508244 10.81237635 12 14 C6.76727367 12.36041242 1.84803364 10.61047965 -3 8 C-1.125 1.125 -1.125 1.125 0 0 Z " fill="#F5F5EE" transform="translate(98,184)"/>
<path d="M0 0 C2.31 0 4.62 0 7 0 C8 1 8 1 8.09765625 4.81640625 C8.09098089 6.39846682 8.07901875 7.98051159 8.0625 9.5625 C8.05798828 10.36880859 8.05347656 11.17511719 8.04882812 12.00585938 C8.03700518 14.00393756 8.01906914 16.00197783 8 18 C5.36 18 2.72 18 0 18 C0 12.06 0 6.12 0 0 Z " fill="#0574BD" transform="translate(104,257)"/>
<path d="M0 0 C1.53202706 0.25195908 3.05257128 0.57596777 4.5625 0.9375 C5.38878906 1.13214844 6.21507812 1.32679688 7.06640625 1.52734375 C8.02353516 1.76130859 8.02353516 1.76130859 9 2 C9.58984375 3.828125 9.58984375 3.828125 10 6 C8.5625 8.75 8.5625 8.75 7 11 C4.03 10.01 1.06 9.02 -2 8 C-1.125 1.125 -1.125 1.125 0 0 Z " fill="#F0F2EC" transform="translate(200,383)"/>
<path d="M0 0 C3.83953399 1.27984466 5.65316744 3.81501296 8 7 C7.3125 8.9375 7.3125 8.9375 6 11 C3.375 11.75 3.375 11.75 1 12 C-0.65 9.69 -2.3 7.38 -4 5 C-2.25 1.125 -2.25 1.125 0 0 Z " fill="#F2F4ED" transform="translate(128,346)"/>
<path d="M0 0 C2.64 0 5.28 0 8 0 C8 2.64 8 5.28 8 8 C5.36 8 2.72 8 0 8 C0 5.36 0 2.72 0 0 Z " fill="#4FB3E5" transform="translate(331,210)"/>
<path d="M0 0 C4.8 3.32307692 4.8 3.32307692 5.8125 6.75 C5.874375 7.4925 5.93625 8.235 6 9 C4.35 9.33 2.7 9.66 1 10 C-0.65 7.69 -2.3 5.38 -4 3 C-2.68 2.01 -1.36 1.02 0 0 Z " fill="#F2F4ED" transform="translate(139,337)"/>
<path d="M0 0 C0.66 0 1.32 0 2 0 C2.66 3.96 3.32 7.92 4 12 C1.69 12 -0.62 12 -3 12 C-2.68950274 10.56206608 -2.3765224 9.1246682 -2.0625 7.6875 C-1.88847656 6.88699219 -1.71445313 6.08648437 -1.53515625 5.26171875 C-1 3 -1 3 0 0 Z " fill="#DDE8E9" transform="translate(255,88)"/>
<path d="M0 0 C3.30286086 1.10095362 3.78510901 1.6896019 5.6875 4.4375 C6.34298828 5.36369141 6.34298828 5.36369141 7.01171875 6.30859375 C8 8 8 8 8 10 C5.69 10.66 3.38 11.32 1 12 C0.67 8.04 0.34 4.08 0 0 Z " fill="#E2EBEA" transform="translate(187,100)"/>
<path d="M0 0 C0.66 0 1.32 0 2 0 C1.67 3.96 1.34 7.92 1 12 C-1.31 11.34 -3.62 10.68 -6 10 C-4.34643078 6.41726669 -2.32019297 3.19026533 0 0 Z " fill="#E8EEEB" transform="translate(313,101)"/>
<path d="M0 0 C0.66 0.33 1.32 0.66 2 1 C1.3503125 1.62648438 0.700625 2.25296875 0.03125 2.8984375 C-1.22171875 4.12433594 -1.22171875 4.12433594 -2.5 5.375 C-3.3353125 6.18710937 -4.170625 6.99921875 -5.03125 7.8359375 C-7.22431286 9.7589659 -7.22431286 9.7589659 -7 12 C-8.75 13.2890625 -8.75 13.2890625 -11 14.625 C-11.7425 15.07101562 -12.485 15.51703125 -13.25 15.9765625 C-13.8275 16.31429688 -14.405 16.65203125 -15 17 C-13.67879172 14.06769807 -12.25361803 12.01335101 -9.9609375 9.765625 C-9.38085938 9.19199219 -8.80078125 8.61835938 -8.203125 8.02734375 C-7.59984375 7.44082031 -6.9965625 6.85429687 -6.375 6.25 C-5.76398438 5.64800781 -5.15296875 5.04601562 -4.5234375 4.42578125 C-3.02011376 2.94594695 -1.51065144 1.47235324 0 0 Z " fill="#61BBE6" transform="translate(273,305)"/>
<path d="M0 0 C0.33 0 0.66 0 1 0 C1 2.31 1 4.62 1 7 C-0.98 7 -2.96 7 -5 7 C-1.125 1.125 -1.125 1.125 0 0 Z " fill="#0C77BE" transform="translate(421,263)"/>
</svg>
